<mxfile host="app.diagrams.net" modified="2023-11-16T10:13:29.639Z" agent="Mozilla/5.0 (Windows NT 10.0; Win64; x64) AppleWebKit/537.36 (KHTML, like Gecko) Chrome/119.0.0.0 Safari/537.36" etag="qiInhCRssIPPowTYttUE" version="21.8.0" type="github">
  <diagram name="페이지-1" id="8IHDN_-SKcLilpCCmVuQ">
    <mxGraphModel dx="1173" dy="642" grid="1" gridSize="10" guides="1" tooltips="1" connect="1" arrows="1" fold="1" page="1" pageScale="1" pageWidth="1920" pageHeight="1200" math="0" shadow="0">
      <root>
        <mxCell id="0" />
        <mxCell id="1" parent="0" />
        <mxCell id="AJ-2sVFdrdn4f0Wi_BYu-5" style="edgeStyle=orthogonalEdgeStyle;rounded=0;orthogonalLoop=1;jettySize=auto;html=1;entryX=0.5;entryY=0;entryDx=0;entryDy=0;" edge="1" parent="1" source="AJ-2sVFdrdn4f0Wi_BYu-3" target="AJ-2sVFdrdn4f0Wi_BYu-4">
          <mxGeometry relative="1" as="geometry" />
        </mxCell>
        <mxCell id="AJ-2sVFdrdn4f0Wi_BYu-3" value="TOFEL" style="rounded=0;whiteSpace=wrap;html=1;" vertex="1" parent="1">
          <mxGeometry x="630" y="200" width="140" height="40" as="geometry" />
        </mxCell>
        <mxCell id="AJ-2sVFdrdn4f0Wi_BYu-10" style="edgeStyle=orthogonalEdgeStyle;rounded=0;orthogonalLoop=1;jettySize=auto;html=1;exitX=0.5;exitY=1;exitDx=0;exitDy=0;" edge="1" parent="1" source="AJ-2sVFdrdn4f0Wi_BYu-4" target="AJ-2sVFdrdn4f0Wi_BYu-6">
          <mxGeometry relative="1" as="geometry">
            <mxPoint x="700" y="360" as="sourcePoint" />
          </mxGeometry>
        </mxCell>
        <mxCell id="AJ-2sVFdrdn4f0Wi_BYu-4" value="요구점수 : 100" style="rounded=0;whiteSpace=wrap;html=1;" vertex="1" parent="1">
          <mxGeometry x="630" y="280" width="140" height="40" as="geometry" />
        </mxCell>
        <mxCell id="AJ-2sVFdrdn4f0Wi_BYu-19" style="edgeStyle=orthogonalEdgeStyle;rounded=0;orthogonalLoop=1;jettySize=auto;html=1;" edge="1" parent="1" source="AJ-2sVFdrdn4f0Wi_BYu-6" target="AJ-2sVFdrdn4f0Wi_BYu-13">
          <mxGeometry relative="1" as="geometry" />
        </mxCell>
        <mxCell id="AJ-2sVFdrdn4f0Wi_BYu-6" value="&lt;div style=&quot;line-height: 150%;&quot;&gt;&lt;span style=&quot;background-color: initial;&quot;&gt;&amp;nbsp;1. 현재의 입장 (점수)&amp;nbsp;&lt;/span&gt;&lt;/div&gt;&lt;div style=&quot;line-height: 150%;&quot;&gt;&lt;span style=&quot;background-color: initial;&quot;&gt;&amp;nbsp;2. 고졸 평균점수&lt;/span&gt;&lt;/div&gt;&lt;div style=&quot;line-height: 150%;&quot;&gt;&lt;span style=&quot;background-color: initial;&quot;&gt;&amp;nbsp;3. 전문 대졸 평균점수&lt;/span&gt;&lt;/div&gt;&lt;div style=&quot;line-height: 150%;&quot;&gt;&lt;span style=&quot;background-color: initial;&quot;&gt;&amp;nbsp;4. 대졸 평균 점수&lt;/span&gt;&lt;/div&gt;" style="shape=cube;whiteSpace=wrap;html=1;boundedLbl=1;backgroundOutline=1;darkOpacity=0.05;darkOpacity2=0.1;align=left;size=10;" vertex="1" parent="1">
          <mxGeometry x="630" y="425" width="140" height="100" as="geometry" />
        </mxCell>
        <mxCell id="AJ-2sVFdrdn4f0Wi_BYu-12" value="현재 입장 ( 점수 )" style="shape=cube;whiteSpace=wrap;html=1;boundedLbl=1;backgroundOutline=1;darkOpacity=0.05;darkOpacity2=0.1;size=10;" vertex="1" parent="1">
          <mxGeometry x="870" y="380" width="120" height="40" as="geometry" />
        </mxCell>
        <mxCell id="AJ-2sVFdrdn4f0Wi_BYu-89" style="edgeStyle=orthogonalEdgeStyle;rounded=0;orthogonalLoop=1;jettySize=auto;html=1;" edge="1" parent="1" source="AJ-2sVFdrdn4f0Wi_BYu-13" target="AJ-2sVFdrdn4f0Wi_BYu-76">
          <mxGeometry relative="1" as="geometry" />
        </mxCell>
        <mxCell id="AJ-2sVFdrdn4f0Wi_BYu-13" value="고졸 평균점수" style="shape=cube;whiteSpace=wrap;html=1;boundedLbl=1;backgroundOutline=1;darkOpacity=0.05;darkOpacity2=0.1;size=10;" vertex="1" parent="1">
          <mxGeometry x="870" y="430" width="120" height="40" as="geometry" />
        </mxCell>
        <mxCell id="AJ-2sVFdrdn4f0Wi_BYu-90" style="edgeStyle=orthogonalEdgeStyle;rounded=0;orthogonalLoop=1;jettySize=auto;html=1;" edge="1" parent="1" source="AJ-2sVFdrdn4f0Wi_BYu-14" target="AJ-2sVFdrdn4f0Wi_BYu-76">
          <mxGeometry relative="1" as="geometry" />
        </mxCell>
        <mxCell id="AJ-2sVFdrdn4f0Wi_BYu-14" value="전문 대졸 평균점수" style="shape=cube;whiteSpace=wrap;html=1;boundedLbl=1;backgroundOutline=1;darkOpacity=0.05;darkOpacity2=0.1;size=10;" vertex="1" parent="1">
          <mxGeometry x="870" y="480" width="120" height="40" as="geometry" />
        </mxCell>
        <mxCell id="AJ-2sVFdrdn4f0Wi_BYu-91" style="edgeStyle=orthogonalEdgeStyle;rounded=0;orthogonalLoop=1;jettySize=auto;html=1;" edge="1" parent="1" source="AJ-2sVFdrdn4f0Wi_BYu-15" target="AJ-2sVFdrdn4f0Wi_BYu-76">
          <mxGeometry relative="1" as="geometry" />
        </mxCell>
        <mxCell id="AJ-2sVFdrdn4f0Wi_BYu-15" value="대졸 평균 점수" style="shape=cube;whiteSpace=wrap;html=1;boundedLbl=1;backgroundOutline=1;darkOpacity=0.05;darkOpacity2=0.1;size=10;" vertex="1" parent="1">
          <mxGeometry x="870" y="530" width="120" height="40" as="geometry" />
        </mxCell>
        <mxCell id="AJ-2sVFdrdn4f0Wi_BYu-18" style="edgeStyle=orthogonalEdgeStyle;rounded=0;orthogonalLoop=1;jettySize=auto;html=1;entryX=0;entryY=0;entryDx=0;entryDy=15;entryPerimeter=0;" edge="1" parent="1" source="AJ-2sVFdrdn4f0Wi_BYu-6" target="AJ-2sVFdrdn4f0Wi_BYu-12">
          <mxGeometry relative="1" as="geometry" />
        </mxCell>
        <mxCell id="AJ-2sVFdrdn4f0Wi_BYu-20" style="edgeStyle=orthogonalEdgeStyle;rounded=0;orthogonalLoop=1;jettySize=auto;html=1;entryX=0;entryY=0;entryDx=0;entryDy=15;entryPerimeter=0;" edge="1" parent="1" source="AJ-2sVFdrdn4f0Wi_BYu-6" target="AJ-2sVFdrdn4f0Wi_BYu-14">
          <mxGeometry relative="1" as="geometry" />
        </mxCell>
        <mxCell id="AJ-2sVFdrdn4f0Wi_BYu-21" style="edgeStyle=orthogonalEdgeStyle;rounded=0;orthogonalLoop=1;jettySize=auto;html=1;entryX=0;entryY=0;entryDx=0;entryDy=15;entryPerimeter=0;" edge="1" parent="1" source="AJ-2sVFdrdn4f0Wi_BYu-6" target="AJ-2sVFdrdn4f0Wi_BYu-15">
          <mxGeometry relative="1" as="geometry" />
        </mxCell>
        <mxCell id="AJ-2sVFdrdn4f0Wi_BYu-74" value="1,2,3,4" style="edgeLabel;html=1;align=center;verticalAlign=middle;resizable=0;points=[];" vertex="1" connectable="0" parent="AJ-2sVFdrdn4f0Wi_BYu-21">
          <mxGeometry x="-0.474" y="2" relative="1" as="geometry">
            <mxPoint x="-15" y="-8" as="offset" />
          </mxGeometry>
        </mxCell>
        <mxCell id="AJ-2sVFdrdn4f0Wi_BYu-60" value="절대적 점수 척도" style="shape=table;startSize=30;container=1;collapsible=0;childLayout=tableLayout;fixedRows=1;rowLines=0;fontStyle=0;strokeColor=#d6b656;fontSize=16;fillColor=#fff2cc;" vertex="1" parent="1">
          <mxGeometry x="840" y="200" width="180" height="150" as="geometry" />
        </mxCell>
        <mxCell id="AJ-2sVFdrdn4f0Wi_BYu-61" value="" style="shape=tableRow;horizontal=0;startSize=0;swimlaneHead=0;swimlaneBody=0;top=0;left=0;bottom=0;right=0;collapsible=0;dropTarget=0;fillColor=none;points=[[0,0.5],[1,0.5]];portConstraint=eastwest;strokeColor=inherit;fontSize=16;" vertex="1" parent="AJ-2sVFdrdn4f0Wi_BYu-60">
          <mxGeometry y="30" width="180" height="30" as="geometry" />
        </mxCell>
        <mxCell id="AJ-2sVFdrdn4f0Wi_BYu-62" value="Listening" style="shape=partialRectangle;html=1;whiteSpace=wrap;connectable=0;fillColor=none;top=0;left=0;bottom=0;right=0;overflow=hidden;pointerEvents=1;strokeColor=inherit;fontSize=16;" vertex="1" parent="AJ-2sVFdrdn4f0Wi_BYu-61">
          <mxGeometry width="90" height="30" as="geometry">
            <mxRectangle width="90" height="30" as="alternateBounds" />
          </mxGeometry>
        </mxCell>
        <mxCell id="AJ-2sVFdrdn4f0Wi_BYu-63" value="0–30" style="shape=partialRectangle;html=1;whiteSpace=wrap;connectable=0;fillColor=none;top=0;left=0;bottom=0;right=0;align=left;spacingLeft=6;overflow=hidden;strokeColor=inherit;fontSize=16;" vertex="1" parent="AJ-2sVFdrdn4f0Wi_BYu-61">
          <mxGeometry x="90" width="90" height="30" as="geometry">
            <mxRectangle width="90" height="30" as="alternateBounds" />
          </mxGeometry>
        </mxCell>
        <mxCell id="AJ-2sVFdrdn4f0Wi_BYu-64" value="" style="shape=tableRow;horizontal=0;startSize=0;swimlaneHead=0;swimlaneBody=0;top=0;left=0;bottom=0;right=0;collapsible=0;dropTarget=0;fillColor=none;points=[[0,0.5],[1,0.5]];portConstraint=eastwest;strokeColor=inherit;fontSize=16;" vertex="1" parent="AJ-2sVFdrdn4f0Wi_BYu-60">
          <mxGeometry y="60" width="180" height="30" as="geometry" />
        </mxCell>
        <mxCell id="AJ-2sVFdrdn4f0Wi_BYu-65" value="Reading" style="shape=partialRectangle;html=1;whiteSpace=wrap;connectable=0;fillColor=none;top=0;left=0;bottom=0;right=0;overflow=hidden;strokeColor=inherit;fontSize=16;" vertex="1" parent="AJ-2sVFdrdn4f0Wi_BYu-64">
          <mxGeometry width="90" height="30" as="geometry">
            <mxRectangle width="90" height="30" as="alternateBounds" />
          </mxGeometry>
        </mxCell>
        <mxCell id="AJ-2sVFdrdn4f0Wi_BYu-66" value="0–30" style="shape=partialRectangle;html=1;whiteSpace=wrap;connectable=0;fillColor=none;top=0;left=0;bottom=0;right=0;align=left;spacingLeft=6;overflow=hidden;strokeColor=inherit;fontSize=16;" vertex="1" parent="AJ-2sVFdrdn4f0Wi_BYu-64">
          <mxGeometry x="90" width="90" height="30" as="geometry">
            <mxRectangle width="90" height="30" as="alternateBounds" />
          </mxGeometry>
        </mxCell>
        <mxCell id="AJ-2sVFdrdn4f0Wi_BYu-67" value="" style="shape=tableRow;horizontal=0;startSize=0;swimlaneHead=0;swimlaneBody=0;top=0;left=0;bottom=0;right=0;collapsible=0;dropTarget=0;fillColor=none;points=[[0,0.5],[1,0.5]];portConstraint=eastwest;strokeColor=inherit;fontSize=16;" vertex="1" parent="AJ-2sVFdrdn4f0Wi_BYu-60">
          <mxGeometry y="90" width="180" height="30" as="geometry" />
        </mxCell>
        <mxCell id="AJ-2sVFdrdn4f0Wi_BYu-68" value="Writing" style="shape=partialRectangle;html=1;whiteSpace=wrap;connectable=0;fillColor=none;top=0;left=0;bottom=0;right=0;overflow=hidden;strokeColor=inherit;fontSize=16;" vertex="1" parent="AJ-2sVFdrdn4f0Wi_BYu-67">
          <mxGeometry width="90" height="30" as="geometry">
            <mxRectangle width="90" height="30" as="alternateBounds" />
          </mxGeometry>
        </mxCell>
        <mxCell id="AJ-2sVFdrdn4f0Wi_BYu-69" value="0–30" style="shape=partialRectangle;html=1;whiteSpace=wrap;connectable=0;fillColor=none;top=0;left=0;bottom=0;right=0;align=left;spacingLeft=6;overflow=hidden;strokeColor=inherit;fontSize=16;" vertex="1" parent="AJ-2sVFdrdn4f0Wi_BYu-67">
          <mxGeometry x="90" width="90" height="30" as="geometry">
            <mxRectangle width="90" height="30" as="alternateBounds" />
          </mxGeometry>
        </mxCell>
        <mxCell id="AJ-2sVFdrdn4f0Wi_BYu-71" value="" style="shape=tableRow;horizontal=0;startSize=0;swimlaneHead=0;swimlaneBody=0;top=0;left=0;bottom=0;right=0;collapsible=0;dropTarget=0;fillColor=none;points=[[0,0.5],[1,0.5]];portConstraint=eastwest;strokeColor=inherit;fontSize=16;" vertex="1" parent="AJ-2sVFdrdn4f0Wi_BYu-60">
          <mxGeometry y="120" width="180" height="30" as="geometry" />
        </mxCell>
        <mxCell id="AJ-2sVFdrdn4f0Wi_BYu-72" value="Speaking&amp;nbsp;" style="shape=partialRectangle;html=1;whiteSpace=wrap;connectable=0;fillColor=none;top=0;left=0;bottom=0;right=0;overflow=hidden;strokeColor=inherit;fontSize=16;" vertex="1" parent="AJ-2sVFdrdn4f0Wi_BYu-71">
          <mxGeometry width="90" height="30" as="geometry">
            <mxRectangle width="90" height="30" as="alternateBounds" />
          </mxGeometry>
        </mxCell>
        <mxCell id="AJ-2sVFdrdn4f0Wi_BYu-73" value="0–30" style="shape=partialRectangle;html=1;whiteSpace=wrap;connectable=0;fillColor=none;top=0;left=0;bottom=0;right=0;align=left;spacingLeft=6;overflow=hidden;strokeColor=inherit;fontSize=16;" vertex="1" parent="AJ-2sVFdrdn4f0Wi_BYu-71">
          <mxGeometry x="90" width="90" height="30" as="geometry">
            <mxRectangle width="90" height="30" as="alternateBounds" />
          </mxGeometry>
        </mxCell>
        <mxCell id="AJ-2sVFdrdn4f0Wi_BYu-76" value="국가별 점수" style="shape=table;startSize=30;container=1;collapsible=0;childLayout=tableLayout;fixedRows=1;rowLines=0;fontStyle=0;strokeColor=#d6b656;fontSize=16;fillColor=#fff2cc;" vertex="1" parent="1">
          <mxGeometry x="1080" y="440" width="180" height="150" as="geometry" />
        </mxCell>
        <mxCell id="AJ-2sVFdrdn4f0Wi_BYu-77" value="" style="shape=tableRow;horizontal=0;startSize=0;swimlaneHead=0;swimlaneBody=0;top=0;left=0;bottom=0;right=0;collapsible=0;dropTarget=0;fillColor=none;points=[[0,0.5],[1,0.5]];portConstraint=eastwest;strokeColor=inherit;fontSize=16;" vertex="1" parent="AJ-2sVFdrdn4f0Wi_BYu-76">
          <mxGeometry y="30" width="180" height="30" as="geometry" />
        </mxCell>
        <mxCell id="AJ-2sVFdrdn4f0Wi_BYu-78" value="중국&lt;span style=&quot;white-space: pre;&quot;&gt;&#x9;&lt;/span&gt;" style="shape=partialRectangle;html=1;whiteSpace=wrap;connectable=0;fillColor=none;top=0;left=0;bottom=0;right=0;overflow=hidden;pointerEvents=1;strokeColor=inherit;fontSize=16;" vertex="1" parent="AJ-2sVFdrdn4f0Wi_BYu-77">
          <mxGeometry width="90" height="30" as="geometry">
            <mxRectangle width="90" height="30" as="alternateBounds" />
          </mxGeometry>
        </mxCell>
        <mxCell id="AJ-2sVFdrdn4f0Wi_BYu-79" value="78" style="shape=partialRectangle;html=1;whiteSpace=wrap;connectable=0;fillColor=none;top=0;left=0;bottom=0;right=0;align=left;spacingLeft=6;overflow=hidden;strokeColor=inherit;fontSize=16;" vertex="1" parent="AJ-2sVFdrdn4f0Wi_BYu-77">
          <mxGeometry x="90" width="90" height="30" as="geometry">
            <mxRectangle width="90" height="30" as="alternateBounds" />
          </mxGeometry>
        </mxCell>
        <mxCell id="AJ-2sVFdrdn4f0Wi_BYu-80" value="" style="shape=tableRow;horizontal=0;startSize=0;swimlaneHead=0;swimlaneBody=0;top=0;left=0;bottom=0;right=0;collapsible=0;dropTarget=0;fillColor=none;points=[[0,0.5],[1,0.5]];portConstraint=eastwest;strokeColor=inherit;fontSize=16;" vertex="1" parent="AJ-2sVFdrdn4f0Wi_BYu-76">
          <mxGeometry y="60" width="180" height="30" as="geometry" />
        </mxCell>
        <mxCell id="AJ-2sVFdrdn4f0Wi_BYu-81" value="한국" style="shape=partialRectangle;html=1;whiteSpace=wrap;connectable=0;fillColor=none;top=0;left=0;bottom=0;right=0;overflow=hidden;strokeColor=inherit;fontSize=16;" vertex="1" parent="AJ-2sVFdrdn4f0Wi_BYu-80">
          <mxGeometry width="90" height="30" as="geometry">
            <mxRectangle width="90" height="30" as="alternateBounds" />
          </mxGeometry>
        </mxCell>
        <mxCell id="AJ-2sVFdrdn4f0Wi_BYu-82" value="77" style="shape=partialRectangle;html=1;whiteSpace=wrap;connectable=0;fillColor=none;top=0;left=0;bottom=0;right=0;align=left;spacingLeft=6;overflow=hidden;strokeColor=inherit;fontSize=16;" vertex="1" parent="AJ-2sVFdrdn4f0Wi_BYu-80">
          <mxGeometry x="90" width="90" height="30" as="geometry">
            <mxRectangle width="90" height="30" as="alternateBounds" />
          </mxGeometry>
        </mxCell>
        <mxCell id="AJ-2sVFdrdn4f0Wi_BYu-83" value="" style="shape=tableRow;horizontal=0;startSize=0;swimlaneHead=0;swimlaneBody=0;top=0;left=0;bottom=0;right=0;collapsible=0;dropTarget=0;fillColor=none;points=[[0,0.5],[1,0.5]];portConstraint=eastwest;strokeColor=inherit;fontSize=16;" vertex="1" parent="AJ-2sVFdrdn4f0Wi_BYu-76">
          <mxGeometry y="90" width="180" height="30" as="geometry" />
        </mxCell>
        <mxCell id="AJ-2sVFdrdn4f0Wi_BYu-84" value="터키" style="shape=partialRectangle;html=1;whiteSpace=wrap;connectable=0;fillColor=none;top=0;left=0;bottom=0;right=0;overflow=hidden;strokeColor=inherit;fontSize=16;" vertex="1" parent="AJ-2sVFdrdn4f0Wi_BYu-83">
          <mxGeometry width="90" height="30" as="geometry">
            <mxRectangle width="90" height="30" as="alternateBounds" />
          </mxGeometry>
        </mxCell>
        <mxCell id="AJ-2sVFdrdn4f0Wi_BYu-85" value="77" style="shape=partialRectangle;html=1;whiteSpace=wrap;connectable=0;fillColor=none;top=0;left=0;bottom=0;right=0;align=left;spacingLeft=6;overflow=hidden;strokeColor=inherit;fontSize=16;" vertex="1" parent="AJ-2sVFdrdn4f0Wi_BYu-83">
          <mxGeometry x="90" width="90" height="30" as="geometry">
            <mxRectangle width="90" height="30" as="alternateBounds" />
          </mxGeometry>
        </mxCell>
        <mxCell id="AJ-2sVFdrdn4f0Wi_BYu-86" value="" style="shape=tableRow;horizontal=0;startSize=0;swimlaneHead=0;swimlaneBody=0;top=0;left=0;bottom=0;right=0;collapsible=0;dropTarget=0;fillColor=none;points=[[0,0.5],[1,0.5]];portConstraint=eastwest;strokeColor=inherit;fontSize=16;" vertex="1" parent="AJ-2sVFdrdn4f0Wi_BYu-76">
          <mxGeometry y="120" width="180" height="30" as="geometry" />
        </mxCell>
        <mxCell id="AJ-2sVFdrdn4f0Wi_BYu-87" value="대만" style="shape=partialRectangle;html=1;whiteSpace=wrap;connectable=0;fillColor=none;top=0;left=0;bottom=0;right=0;overflow=hidden;strokeColor=inherit;fontSize=16;" vertex="1" parent="AJ-2sVFdrdn4f0Wi_BYu-86">
          <mxGeometry width="90" height="30" as="geometry">
            <mxRectangle width="90" height="30" as="alternateBounds" />
          </mxGeometry>
        </mxCell>
        <mxCell id="AJ-2sVFdrdn4f0Wi_BYu-88" value="72" style="shape=partialRectangle;html=1;whiteSpace=wrap;connectable=0;fillColor=none;top=0;left=0;bottom=0;right=0;align=left;spacingLeft=6;overflow=hidden;strokeColor=inherit;fontSize=16;" vertex="1" parent="AJ-2sVFdrdn4f0Wi_BYu-86">
          <mxGeometry x="90" width="90" height="30" as="geometry">
            <mxRectangle width="90" height="30" as="alternateBounds" />
          </mxGeometry>
        </mxCell>
        <mxCell id="AJ-2sVFdrdn4f0Wi_BYu-93" value="&lt;ul&gt;&lt;li&gt;Value 1&lt;/li&gt;&lt;li&gt;Value 2&lt;/li&gt;&lt;li&gt;Value 3&lt;/li&gt;&lt;/ul&gt;" style="text;strokeColor=none;fillColor=none;html=1;whiteSpace=wrap;verticalAlign=middle;overflow=hidden;" vertex="1" parent="1">
          <mxGeometry x="1270" y="445" width="100" height="80" as="geometry" />
        </mxCell>
        <mxCell id="AJ-2sVFdrdn4f0Wi_BYu-96" value="절대적 점수 척도" style="shape=table;startSize=30;container=1;collapsible=0;childLayout=tableLayout;fixedRows=1;rowLines=0;fontStyle=0;strokeColor=#d6b656;fontSize=16;fillColor=#fff2cc;" vertex="1" parent="1">
          <mxGeometry x="1040" y="200" width="340" height="200" as="geometry" />
        </mxCell>
        <mxCell id="AJ-2sVFdrdn4f0Wi_BYu-97" value="" style="shape=tableRow;horizontal=0;startSize=0;swimlaneHead=0;swimlaneBody=0;top=0;left=0;bottom=0;right=0;collapsible=0;dropTarget=0;fillColor=none;points=[[0,0.5],[1,0.5]];portConstraint=eastwest;strokeColor=inherit;fontSize=16;" vertex="1" parent="AJ-2sVFdrdn4f0Wi_BYu-96">
          <mxGeometry y="30" width="340" height="80" as="geometry" />
        </mxCell>
        <mxCell id="AJ-2sVFdrdn4f0Wi_BYu-98" value="Listening" style="shape=partialRectangle;html=1;whiteSpace=wrap;connectable=0;fillColor=none;top=0;left=0;bottom=0;right=0;overflow=hidden;pointerEvents=1;strokeColor=inherit;fontSize=16;" vertex="1" parent="AJ-2sVFdrdn4f0Wi_BYu-97">
          <mxGeometry width="130" height="80" as="geometry">
            <mxRectangle width="130" height="80" as="alternateBounds" />
          </mxGeometry>
        </mxCell>
        <mxCell id="AJ-2sVFdrdn4f0Wi_BYu-99" value="- 고급( 24 - 30 )&lt;br&gt;- 고급 - 중급( 18 - 23 )&lt;br&gt;- 하급 - 중급(&amp;nbsp; 4 - 17 )&lt;br&gt;- 하급 - 중급 이하( 0 - 3 )" style="shape=partialRectangle;html=1;whiteSpace=wrap;connectable=0;fillColor=none;top=0;left=0;bottom=0;right=0;align=left;spacingLeft=6;overflow=hidden;strokeColor=inherit;fontSize=16;" vertex="1" parent="AJ-2sVFdrdn4f0Wi_BYu-97">
          <mxGeometry x="130" width="210" height="80" as="geometry">
            <mxRectangle width="210" height="80" as="alternateBounds" />
          </mxGeometry>
        </mxCell>
        <mxCell id="AJ-2sVFdrdn4f0Wi_BYu-100" value="" style="shape=tableRow;horizontal=0;startSize=0;swimlaneHead=0;swimlaneBody=0;top=0;left=0;bottom=0;right=0;collapsible=0;dropTarget=0;fillColor=none;points=[[0,0.5],[1,0.5]];portConstraint=eastwest;strokeColor=inherit;fontSize=16;" vertex="1" parent="AJ-2sVFdrdn4f0Wi_BYu-96">
          <mxGeometry y="110" width="340" height="30" as="geometry" />
        </mxCell>
        <mxCell id="AJ-2sVFdrdn4f0Wi_BYu-101" value="Reading" style="shape=partialRectangle;html=1;whiteSpace=wrap;connectable=0;fillColor=none;top=0;left=0;bottom=0;right=0;overflow=hidden;strokeColor=inherit;fontSize=16;" vertex="1" parent="AJ-2sVFdrdn4f0Wi_BYu-100">
          <mxGeometry width="130" height="30" as="geometry">
            <mxRectangle width="130" height="30" as="alternateBounds" />
          </mxGeometry>
        </mxCell>
        <mxCell id="AJ-2sVFdrdn4f0Wi_BYu-102" value="1–12" style="shape=partialRectangle;html=1;whiteSpace=wrap;connectable=0;fillColor=none;top=0;left=0;bottom=0;right=0;align=left;spacingLeft=6;overflow=hidden;strokeColor=inherit;fontSize=16;" vertex="1" parent="AJ-2sVFdrdn4f0Wi_BYu-100">
          <mxGeometry x="130" width="210" height="30" as="geometry">
            <mxRectangle width="210" height="30" as="alternateBounds" />
          </mxGeometry>
        </mxCell>
        <mxCell id="AJ-2sVFdrdn4f0Wi_BYu-103" value="" style="shape=tableRow;horizontal=0;startSize=0;swimlaneHead=0;swimlaneBody=0;top=0;left=0;bottom=0;right=0;collapsible=0;dropTarget=0;fillColor=none;points=[[0,0.5],[1,0.5]];portConstraint=eastwest;strokeColor=inherit;fontSize=16;" vertex="1" parent="AJ-2sVFdrdn4f0Wi_BYu-96">
          <mxGeometry y="140" width="340" height="30" as="geometry" />
        </mxCell>
        <mxCell id="AJ-2sVFdrdn4f0Wi_BYu-104" value="Writing" style="shape=partialRectangle;html=1;whiteSpace=wrap;connectable=0;fillColor=none;top=0;left=0;bottom=0;right=0;overflow=hidden;strokeColor=inherit;fontSize=16;" vertex="1" parent="AJ-2sVFdrdn4f0Wi_BYu-103">
          <mxGeometry width="130" height="30" as="geometry">
            <mxRectangle width="130" height="30" as="alternateBounds" />
          </mxGeometry>
        </mxCell>
        <mxCell id="AJ-2sVFdrdn4f0Wi_BYu-105" value="1–12" style="shape=partialRectangle;html=1;whiteSpace=wrap;connectable=0;fillColor=none;top=0;left=0;bottom=0;right=0;align=left;spacingLeft=6;overflow=hidden;strokeColor=inherit;fontSize=16;" vertex="1" parent="AJ-2sVFdrdn4f0Wi_BYu-103">
          <mxGeometry x="130" width="210" height="30" as="geometry">
            <mxRectangle width="210" height="30" as="alternateBounds" />
          </mxGeometry>
        </mxCell>
        <mxCell id="AJ-2sVFdrdn4f0Wi_BYu-106" value="" style="shape=tableRow;horizontal=0;startSize=0;swimlaneHead=0;swimlaneBody=0;top=0;left=0;bottom=0;right=0;collapsible=0;dropTarget=0;fillColor=none;points=[[0,0.5],[1,0.5]];portConstraint=eastwest;strokeColor=inherit;fontSize=16;" vertex="1" parent="AJ-2sVFdrdn4f0Wi_BYu-96">
          <mxGeometry y="170" width="340" height="30" as="geometry" />
        </mxCell>
        <mxCell id="AJ-2sVFdrdn4f0Wi_BYu-107" value="Speaking&amp;nbsp;" style="shape=partialRectangle;html=1;whiteSpace=wrap;connectable=0;fillColor=none;top=0;left=0;bottom=0;right=0;overflow=hidden;strokeColor=inherit;fontSize=16;" vertex="1" parent="AJ-2sVFdrdn4f0Wi_BYu-106">
          <mxGeometry width="130" height="30" as="geometry">
            <mxRectangle width="130" height="30" as="alternateBounds" />
          </mxGeometry>
        </mxCell>
        <mxCell id="AJ-2sVFdrdn4f0Wi_BYu-108" value="1–12" style="shape=partialRectangle;html=1;whiteSpace=wrap;connectable=0;fillColor=none;top=0;left=0;bottom=0;right=0;align=left;spacingLeft=6;overflow=hidden;strokeColor=inherit;fontSize=16;" vertex="1" parent="AJ-2sVFdrdn4f0Wi_BYu-106">
          <mxGeometry x="130" width="210" height="30" as="geometry">
            <mxRectangle width="210" height="30" as="alternateBounds" />
          </mxGeometry>
        </mxCell>
      </root>
    </mxGraphModel>
  </diagram>
</mxfile>
